<svg width="16" height="16" viewBox="0 0 16 16" fill="none" xmlns="http://www.w3.org/2000/svg">
<path d="M0.581815 12.0395C0.412677 12.3055 0.219365 12.6198 0.0743859 12.8616C-0.070593 13.1034 0.00189976 13.4178 0.243531 13.5628L3.55389 15.5938C3.79552 15.7389 4.10963 15.6663 4.25463 15.4245C4.37543 15.207 4.54456 14.9168 4.7379 14.6025C6.04269 12.4506 7.37168 12.6924 9.73966 13.8288L13.0259 15.3762C13.2917 15.4971 13.5816 15.3762 13.7024 15.1344L15.2731 11.5801C15.3939 11.3384 15.2731 11.0241 15.0314 10.9031C14.3307 10.5888 12.9534 9.93599 11.7452 9.33153C7.27501 7.17961 3.48141 7.32468 0.581815 12.0395Z" fill="url(#paint0_linear_135_1121)"/>
<path d="M15.4182 3.96373C15.5874 3.69777 15.7807 3.38344 15.9257 3.14165C16.0707 2.89986 15.9981 2.58554 15.7565 2.44046L12.4461 0.409434C12.2045 0.264362 11.8904 0.336901 11.7454 0.578686C11.6246 0.796298 11.4554 1.08645 11.2622 1.40077C9.9573 3.55269 8.62838 3.3109 6.26033 2.17449L2.97414 0.627046C2.70835 0.506153 2.41839 0.627046 2.29757 0.868837L0.726961 4.4231C0.606148 4.6649 0.726961 4.97923 0.968592 5.10016C1.66933 5.41449 3.04664 6.06729 4.25481 6.67175C8.72498 8.79954 12.5186 8.6786 15.4182 3.96373Z" fill="url(#paint1_linear_135_1121)"/>
<defs>
<linearGradient id="paint0_linear_135_1121" x1="20.9269" y1="14.1431" x2="17.2203" y2="5.65393" gradientUnits="userSpaceOnUse">
<stop stop-color="#0052CC"/>
<stop offset="0.9182" stop-color="#2380FB"/>
<stop offset="1" stop-color="#2684FF"/>
</linearGradient>
<linearGradient id="paint1_linear_135_1121" x1="-4.93487" y1="1.85051" x2="-1.23935" y2="10.3372" gradientUnits="userSpaceOnUse">
<stop stop-color="#0052CC"/>
<stop offset="0.9182" stop-color="#2380FB"/>
<stop offset="1" stop-color="#2684FF"/>
</linearGradient>
</defs>
</svg>
